<svg
        xmlns="http://www.w3.org/2000/svg"
        xmlns:xlink="http://www.w3.org/1999/xlink"
        width="19px" height="19px">
    <path fill-rule="evenodd" fill="rgb(255, 255, 255)"
          d="M-0.002,19.000 C-0.002,12.677 -0.002,6.349 -0.002,-0.001 C6.359,-0.001 12.605,-0.001 18.998,-0.001 C18.998,6.341 18.998,12.662 18.998,19.000 C12.623,19.000 6.385,19.000 -0.002,19.000 ZM16.998,2.000 C11.931,2.007 7.066,1.999 1.998,2.000 C1.601,2.000 2.029,2.048 1.998,2.000 C1.998,7.034 2.008,11.965 1.998,17.000 C4.532,16.989 7.465,16.999 9.998,17.000 C12.532,17.000 14.464,16.989 16.998,17.000 C16.990,11.955 16.991,7.044 16.998,2.000 ZM15.183,15.829 C13.847,15.843 12.511,15.845 11.174,15.829 C10.676,15.823 10.371,15.497 10.371,15.051 C10.370,14.600 10.702,14.270 11.202,14.261 C11.837,14.248 12.473,14.258 13.110,14.258 C13.142,14.214 13.174,14.171 13.206,14.128 C13.110,14.072 12.999,14.034 12.923,13.960 C12.171,13.221 11.421,12.481 10.679,11.733 C10.210,11.259 10.285,10.622 10.828,10.374 C11.157,10.224 11.495,10.306 11.826,10.632 C12.570,11.365 13.309,12.101 14.046,12.841 C14.121,12.916 14.161,13.027 14.217,13.121 C14.261,13.095 14.303,13.069 14.347,13.043 C14.347,12.942 14.347,12.840 14.347,12.738 C14.347,12.203 14.339,11.668 14.352,11.133 C14.364,10.633 14.692,10.305 15.146,10.306 C15.586,10.307 15.923,10.622 15.929,11.108 C15.944,12.436 15.943,13.763 15.929,15.091 C15.925,15.520 15.617,15.825 15.183,15.829 ZM8.426,7.255 C8.784,7.613 8.839,8.010 8.600,8.350 C8.357,8.698 7.901,8.800 7.547,8.566 C7.383,8.457 7.238,8.316 7.098,8.177 C6.343,7.429 5.593,6.677 4.841,5.927 C4.816,5.938 4.788,5.950 4.763,5.961 C4.763,6.572 4.764,7.182 4.763,7.793 C4.760,8.093 4.682,8.359 4.417,8.543 C3.941,8.874 3.291,8.607 3.196,8.039 C3.180,7.932 3.174,7.822 3.173,7.713 C3.171,6.504 3.168,5.296 3.172,4.088 C3.175,3.438 3.452,3.159 4.101,3.156 C5.337,3.151 6.573,3.151 7.810,3.157 C8.326,3.160 8.638,3.376 8.720,3.759 C8.835,4.293 8.476,4.724 7.886,4.735 C7.259,4.745 6.631,4.737 5.926,4.737 C6.033,4.857 6.095,4.935 6.165,5.005 C6.918,5.755 7.676,6.502 8.426,7.255 Z"/>
</svg>