<svg
        xmlns="http://www.w3.org/2000/svg"
        xmlns:xlink="http://www.w3.org/1999/xlink"
        width="21px" height="19px">
    <path fill-rule="evenodd" fill="rgb(255, 255, 255)"
          d="M15.489,3.185 C15.489,7.654 15.489,14.546 15.489,19.009 C14.349,19.009 13.334,19.009 12.241,19.009 C12.241,14.600 12.241,7.708 12.241,3.240 C10.356,3.240 8.544,3.240 6.681,3.240 C6.681,2.127 6.681,1.095 6.681,0.002 C11.431,0.002 16.195,0.002 21.005,0.002 C21.005,1.037 21.005,2.067 21.005,3.185 C19.184,3.185 17.375,3.185 15.489,3.185 ZM9.880,8.748 C8.808,8.748 7.737,8.748 6.600,8.748 C6.600,11.365 6.600,16.395 6.600,18.978 C5.485,18.978 4.434,18.978 3.304,18.978 C3.304,16.442 3.304,11.393 3.304,8.766 C2.135,8.766 1.093,8.766 0.000,8.766 C0.000,7.675 0.000,6.624 0.000,5.526 C3.284,5.526 6.562,5.526 9.880,5.526 C9.880,6.583 9.880,7.617 9.880,8.748 Z"/>
</svg>